<svg version="1.1" width="420" height="100">
<g transform="scale(20)">
<g fill="none" stroke="black" stroke-width="0.08">
	<g transform="translate(0,0)">
	<polygon points="1,2 2.5,1 4,2 3.5,3.5 2,4" />
	<polyline stroke="red" stroke-linejoin="round"
			points="2,4 2.5,1 3.5,3.5" />
	</g>
	<g transform="translate(4,0)">
	<polygon points="1,2 2.5,1 4,2 3.5,3.5 2,4" />
	<polyline stroke="red" stroke-linejoin="round"
			points="1,2 4,2 2,4" />
	</g>
	<g transform="translate(8,0)">
	<polygon points="1,2 2.5,1 4,2 3.5,3.5 2,4" />
	<polyline stroke="red" stroke-linejoin="round"
			points="2.5,1 3.5,3.5 1,2" />
	</g>
	<g transform="translate(12,0)">
	<polygon points="1,2 2.5,1 4,2 3.5,3.5 2,4" />
	<polyline stroke="red" stroke-linejoin="round"
			points="4,2 2,4 2.5,1" />
	</g>
	<g transform="translate(16,0)">
	<polygon points="1,2 2.5,1 4,2 3.5,3.5 2,4" />
	<polyline stroke="red" stroke-linejoin="round"
			points="3.5,3.5 1,2 4,2" />
	</g>
</g>
</g>
</svg>
